<mxfile host="app.diagrams.net" modified="2023-10-03T07:25:47.256Z" agent="Mozilla/5.0 (Windows NT 10.0; Win64; x64) AppleWebKit/537.36 (KHTML, like Gecko) Chrome/117.0.0.0 Safari/537.36" etag="Bg_YR2WHpK8KLXVTp44d" version="22.0.1" type="device">
  <diagram name="Страница — 1" id="4dMn-s5bN-a3aH36j2uR">
    <mxGraphModel dx="1050" dy="574" grid="1" gridSize="7" guides="1" tooltips="1" connect="1" arrows="1" fold="1" page="1" pageScale="1" pageWidth="827" pageHeight="1169" background="#FFFFFF" math="0" shadow="0">
      <root>
        <mxCell id="0" />
        <mxCell id="1" parent="0" />
        <mxCell id="ydGu8Us_ou9ygVwaH-XO-48" value="Alleya" style="shape=table;startSize=30;container=1;collapsible=1;childLayout=tableLayout;fixedRows=1;rowLines=0;fontStyle=1;align=center;resizeLast=1;html=1;" parent="1" vertex="1">
          <mxGeometry x="302" y="494.5" width="180" height="119" as="geometry" />
        </mxCell>
        <mxCell id="ydGu8Us_ou9ygVwaH-XO-49" value="" style="shape=tableRow;horizontal=0;startSize=0;swimlaneHead=0;swimlaneBody=0;fillColor=none;collapsible=0;dropTarget=0;points=[[0,0.5],[1,0.5]];portConstraint=eastwest;top=0;left=0;right=0;bottom=1;" parent="ydGu8Us_ou9ygVwaH-XO-48" vertex="1">
          <mxGeometry y="30" width="180" height="30" as="geometry" />
        </mxCell>
        <mxCell id="ydGu8Us_ou9ygVwaH-XO-50" value="PK" style="shape=partialRectangle;connectable=0;fillColor=none;top=0;left=0;bottom=0;right=0;fontStyle=1;overflow=hidden;whiteSpace=wrap;html=1;" parent="ydGu8Us_ou9ygVwaH-XO-49" vertex="1">
          <mxGeometry width="30" height="30" as="geometry">
            <mxRectangle width="30" height="30" as="alternateBounds" />
          </mxGeometry>
        </mxCell>
        <mxCell id="ydGu8Us_ou9ygVwaH-XO-51" value="id INTEGER not null" style="shape=partialRectangle;connectable=0;fillColor=none;top=0;left=0;bottom=0;right=0;align=left;spacingLeft=6;fontStyle=5;overflow=hidden;whiteSpace=wrap;html=1;" parent="ydGu8Us_ou9ygVwaH-XO-49" vertex="1">
          <mxGeometry x="30" width="150" height="30" as="geometry">
            <mxRectangle width="150" height="30" as="alternateBounds" />
          </mxGeometry>
        </mxCell>
        <mxCell id="ydGu8Us_ou9ygVwaH-XO-52" value="" style="shape=tableRow;horizontal=0;startSize=0;swimlaneHead=0;swimlaneBody=0;fillColor=none;collapsible=0;dropTarget=0;points=[[0,0.5],[1,0.5]];portConstraint=eastwest;top=0;left=0;right=0;bottom=0;" parent="ydGu8Us_ou9ygVwaH-XO-48" vertex="1">
          <mxGeometry y="60" width="180" height="30" as="geometry" />
        </mxCell>
        <mxCell id="ydGu8Us_ou9ygVwaH-XO-53" value="" style="shape=partialRectangle;connectable=0;fillColor=none;top=0;left=0;bottom=0;right=0;editable=1;overflow=hidden;whiteSpace=wrap;html=1;" parent="ydGu8Us_ou9ygVwaH-XO-52" vertex="1">
          <mxGeometry width="30" height="30" as="geometry">
            <mxRectangle width="30" height="30" as="alternateBounds" />
          </mxGeometry>
        </mxCell>
        <mxCell id="ydGu8Us_ou9ygVwaH-XO-54" value="name VARCHAR(30)" style="shape=partialRectangle;connectable=0;fillColor=none;top=0;left=0;bottom=0;right=0;align=left;spacingLeft=6;overflow=hidden;whiteSpace=wrap;html=1;" parent="ydGu8Us_ou9ygVwaH-XO-52" vertex="1">
          <mxGeometry x="30" width="150" height="30" as="geometry">
            <mxRectangle width="150" height="30" as="alternateBounds" />
          </mxGeometry>
        </mxCell>
        <mxCell id="ydGu8Us_ou9ygVwaH-XO-55" value="" style="shape=tableRow;horizontal=0;startSize=0;swimlaneHead=0;swimlaneBody=0;fillColor=none;collapsible=0;dropTarget=0;points=[[0,0.5],[1,0.5]];portConstraint=eastwest;top=0;left=0;right=0;bottom=0;" parent="ydGu8Us_ou9ygVwaH-XO-48" vertex="1">
          <mxGeometry y="90" width="180" height="29" as="geometry" />
        </mxCell>
        <mxCell id="ydGu8Us_ou9ygVwaH-XO-56" value="FK" style="shape=partialRectangle;connectable=0;fillColor=none;top=0;left=0;bottom=0;right=0;editable=1;overflow=hidden;whiteSpace=wrap;html=1;" parent="ydGu8Us_ou9ygVwaH-XO-55" vertex="1">
          <mxGeometry width="30" height="29" as="geometry">
            <mxRectangle width="30" height="29" as="alternateBounds" />
          </mxGeometry>
        </mxCell>
        <mxCell id="ydGu8Us_ou9ygVwaH-XO-57" value="id_park INTEGER not null" style="shape=partialRectangle;connectable=0;fillColor=none;top=0;left=0;bottom=0;right=0;align=left;spacingLeft=6;overflow=hidden;whiteSpace=wrap;html=1;" parent="ydGu8Us_ou9ygVwaH-XO-55" vertex="1">
          <mxGeometry x="30" width="150" height="29" as="geometry">
            <mxRectangle width="150" height="29" as="alternateBounds" />
          </mxGeometry>
        </mxCell>
        <mxCell id="ydGu8Us_ou9ygVwaH-XO-74" value="Tree" style="shape=table;startSize=30;container=1;collapsible=1;childLayout=tableLayout;fixedRows=1;rowLines=0;fontStyle=1;align=center;resizeLast=1;html=1;" parent="1" vertex="1">
          <mxGeometry x="305" y="686" width="223" height="117" as="geometry" />
        </mxCell>
        <mxCell id="ydGu8Us_ou9ygVwaH-XO-75" value="" style="shape=tableRow;horizontal=0;startSize=0;swimlaneHead=0;swimlaneBody=0;fillColor=none;collapsible=0;dropTarget=0;points=[[0,0.5],[1,0.5]];portConstraint=eastwest;top=0;left=0;right=0;bottom=1;" parent="ydGu8Us_ou9ygVwaH-XO-74" vertex="1">
          <mxGeometry y="30" width="223" height="30" as="geometry" />
        </mxCell>
        <mxCell id="ydGu8Us_ou9ygVwaH-XO-76" value="PK" style="shape=partialRectangle;connectable=0;fillColor=none;top=0;left=0;bottom=0;right=0;fontStyle=1;overflow=hidden;whiteSpace=wrap;html=1;" parent="ydGu8Us_ou9ygVwaH-XO-75" vertex="1">
          <mxGeometry width="30" height="30" as="geometry">
            <mxRectangle width="30" height="30" as="alternateBounds" />
          </mxGeometry>
        </mxCell>
        <mxCell id="ydGu8Us_ou9ygVwaH-XO-77" value="id_tree INTEGER not null" style="shape=partialRectangle;connectable=0;fillColor=none;top=0;left=0;bottom=0;right=0;align=left;spacingLeft=6;fontStyle=5;overflow=hidden;whiteSpace=wrap;html=1;" parent="ydGu8Us_ou9ygVwaH-XO-75" vertex="1">
          <mxGeometry x="30" width="193" height="30" as="geometry">
            <mxRectangle width="193" height="30" as="alternateBounds" />
          </mxGeometry>
        </mxCell>
        <mxCell id="ydGu8Us_ou9ygVwaH-XO-81" value="" style="shape=tableRow;horizontal=0;startSize=0;swimlaneHead=0;swimlaneBody=0;fillColor=none;collapsible=0;dropTarget=0;points=[[0,0.5],[1,0.5]];portConstraint=eastwest;top=0;left=0;right=0;bottom=0;" parent="ydGu8Us_ou9ygVwaH-XO-74" vertex="1">
          <mxGeometry y="60" width="223" height="30" as="geometry" />
        </mxCell>
        <mxCell id="ydGu8Us_ou9ygVwaH-XO-82" value="FK" style="shape=partialRectangle;connectable=0;fillColor=none;top=0;left=0;bottom=0;right=0;editable=1;overflow=hidden;whiteSpace=wrap;html=1;" parent="ydGu8Us_ou9ygVwaH-XO-81" vertex="1">
          <mxGeometry width="30" height="30" as="geometry">
            <mxRectangle width="30" height="30" as="alternateBounds" />
          </mxGeometry>
        </mxCell>
        <mxCell id="ydGu8Us_ou9ygVwaH-XO-83" value="id_kind INTEGER&amp;nbsp;not null" style="shape=partialRectangle;connectable=0;fillColor=none;top=0;left=0;bottom=0;right=0;align=left;spacingLeft=6;overflow=hidden;whiteSpace=wrap;html=1;" parent="ydGu8Us_ou9ygVwaH-XO-81" vertex="1">
          <mxGeometry x="30" width="193" height="30" as="geometry">
            <mxRectangle width="193" height="30" as="alternateBounds" />
          </mxGeometry>
        </mxCell>
        <mxCell id="ydGu8Us_ou9ygVwaH-XO-100" value="" style="shape=tableRow;horizontal=0;startSize=0;swimlaneHead=0;swimlaneBody=0;fillColor=none;collapsible=0;dropTarget=0;points=[[0,0.5],[1,0.5]];portConstraint=eastwest;top=0;left=0;right=0;bottom=0;" parent="ydGu8Us_ou9ygVwaH-XO-74" vertex="1">
          <mxGeometry y="90" width="223" height="27" as="geometry" />
        </mxCell>
        <mxCell id="ydGu8Us_ou9ygVwaH-XO-101" value="" style="shape=partialRectangle;connectable=0;fillColor=none;top=0;left=0;bottom=0;right=0;editable=1;overflow=hidden;whiteSpace=wrap;html=1;" parent="ydGu8Us_ou9ygVwaH-XO-100" vertex="1">
          <mxGeometry width="30" height="27" as="geometry">
            <mxRectangle width="30" height="27" as="alternateBounds" />
          </mxGeometry>
        </mxCell>
        <mxCell id="ydGu8Us_ou9ygVwaH-XO-102" value="plant DATE&amp;nbsp;not null" style="shape=partialRectangle;connectable=0;fillColor=none;top=0;left=0;bottom=0;right=0;align=left;spacingLeft=6;overflow=hidden;whiteSpace=wrap;html=1;" parent="ydGu8Us_ou9ygVwaH-XO-100" vertex="1">
          <mxGeometry x="30" width="193" height="27" as="geometry">
            <mxRectangle width="193" height="27" as="alternateBounds" />
          </mxGeometry>
        </mxCell>
        <mxCell id="ydGu8Us_ou9ygVwaH-XO-87" value="Cut" style="shape=table;startSize=30;container=1;collapsible=1;childLayout=tableLayout;fixedRows=1;rowLines=0;fontStyle=1;align=center;resizeLast=1;html=1;" parent="1" vertex="1">
          <mxGeometry x="50" y="679" width="180" height="120" as="geometry" />
        </mxCell>
        <mxCell id="ydGu8Us_ou9ygVwaH-XO-88" value="" style="shape=tableRow;horizontal=0;startSize=0;swimlaneHead=0;swimlaneBody=0;fillColor=none;collapsible=0;dropTarget=0;points=[[0,0.5],[1,0.5]];portConstraint=eastwest;top=0;left=0;right=0;bottom=1;" parent="ydGu8Us_ou9ygVwaH-XO-87" vertex="1">
          <mxGeometry y="30" width="180" height="30" as="geometry" />
        </mxCell>
        <mxCell id="ydGu8Us_ou9ygVwaH-XO-89" value="PK" style="shape=partialRectangle;connectable=0;fillColor=none;top=0;left=0;bottom=0;right=0;fontStyle=1;overflow=hidden;whiteSpace=wrap;html=1;" parent="ydGu8Us_ou9ygVwaH-XO-88" vertex="1">
          <mxGeometry width="30" height="30" as="geometry">
            <mxRectangle width="30" height="30" as="alternateBounds" />
          </mxGeometry>
        </mxCell>
        <mxCell id="ydGu8Us_ou9ygVwaH-XO-90" value="id_cut INTEGER not null" style="shape=partialRectangle;connectable=0;fillColor=none;top=0;left=0;bottom=0;right=0;align=left;spacingLeft=6;fontStyle=5;overflow=hidden;whiteSpace=wrap;html=1;" parent="ydGu8Us_ou9ygVwaH-XO-88" vertex="1">
          <mxGeometry x="30" width="150" height="30" as="geometry">
            <mxRectangle width="150" height="30" as="alternateBounds" />
          </mxGeometry>
        </mxCell>
        <mxCell id="ydGu8Us_ou9ygVwaH-XO-94" value="" style="shape=tableRow;horizontal=0;startSize=0;swimlaneHead=0;swimlaneBody=0;fillColor=none;collapsible=0;dropTarget=0;points=[[0,0.5],[1,0.5]];portConstraint=eastwest;top=0;left=0;right=0;bottom=0;" parent="ydGu8Us_ou9ygVwaH-XO-87" vertex="1">
          <mxGeometry y="60" width="180" height="30" as="geometry" />
        </mxCell>
        <mxCell id="ydGu8Us_ou9ygVwaH-XO-95" value="" style="shape=partialRectangle;connectable=0;fillColor=none;top=0;left=0;bottom=0;right=0;editable=1;overflow=hidden;whiteSpace=wrap;html=1;" parent="ydGu8Us_ou9ygVwaH-XO-94" vertex="1">
          <mxGeometry width="30" height="30" as="geometry">
            <mxRectangle width="30" height="30" as="alternateBounds" />
          </mxGeometry>
        </mxCell>
        <mxCell id="ydGu8Us_ou9ygVwaH-XO-96" value="cut DATE not null" style="shape=partialRectangle;connectable=0;fillColor=none;top=0;left=0;bottom=0;right=0;align=left;spacingLeft=6;overflow=hidden;whiteSpace=wrap;html=1;" parent="ydGu8Us_ou9ygVwaH-XO-94" vertex="1">
          <mxGeometry x="30" width="150" height="30" as="geometry">
            <mxRectangle width="150" height="30" as="alternateBounds" />
          </mxGeometry>
        </mxCell>
        <mxCell id="gfBNlTduynfElLAPpH-c-29" value="" style="shape=tableRow;horizontal=0;startSize=0;swimlaneHead=0;swimlaneBody=0;fillColor=none;collapsible=0;dropTarget=0;points=[[0,0.5],[1,0.5]];portConstraint=eastwest;top=0;left=0;right=0;bottom=0;" vertex="1" parent="ydGu8Us_ou9ygVwaH-XO-87">
          <mxGeometry y="90" width="180" height="30" as="geometry" />
        </mxCell>
        <mxCell id="gfBNlTduynfElLAPpH-c-30" value="FK" style="shape=partialRectangle;connectable=0;fillColor=none;top=0;left=0;bottom=0;right=0;editable=1;overflow=hidden;whiteSpace=wrap;html=1;" vertex="1" parent="gfBNlTduynfElLAPpH-c-29">
          <mxGeometry width="30" height="30" as="geometry">
            <mxRectangle width="30" height="30" as="alternateBounds" />
          </mxGeometry>
        </mxCell>
        <mxCell id="gfBNlTduynfElLAPpH-c-31" value="id_tree INTEGER not null" style="shape=partialRectangle;connectable=0;fillColor=none;top=0;left=0;bottom=0;right=0;align=left;spacingLeft=6;overflow=hidden;whiteSpace=wrap;html=1;" vertex="1" parent="gfBNlTduynfElLAPpH-c-29">
          <mxGeometry x="30" width="150" height="30" as="geometry">
            <mxRectangle width="150" height="30" as="alternateBounds" />
          </mxGeometry>
        </mxCell>
        <mxCell id="ydGu8Us_ou9ygVwaH-XO-103" value="" style="edgeStyle=entityRelationEdgeStyle;fontSize=12;html=1;endArrow=ERoneToMany;rounded=0;exitX=1;exitY=0.5;exitDx=0;exitDy=0;entryX=0;entryY=0.5;entryDx=0;entryDy=0;" parent="1" target="ydGu8Us_ou9ygVwaH-XO-55" edge="1" source="ydGu8Us_ou9ygVwaH-XO-36">
          <mxGeometry width="100" height="100" relative="1" as="geometry">
            <mxPoint x="222" y="541.5" as="sourcePoint" />
            <mxPoint x="301" y="541.5" as="targetPoint" />
            <Array as="points">
              <mxPoint x="455" y="643.5" />
            </Array>
          </mxGeometry>
        </mxCell>
        <mxCell id="ydGu8Us_ou9ygVwaH-XO-104" value="" style="edgeStyle=entityRelationEdgeStyle;fontSize=12;html=1;endArrow=ERoneToMany;rounded=0;exitX=0;exitY=0.5;exitDx=0;exitDy=0;entryX=1;entryY=0.5;entryDx=0;entryDy=0;" parent="1" source="ydGu8Us_ou9ygVwaH-XO-62" target="ydGu8Us_ou9ygVwaH-XO-81" edge="1">
          <mxGeometry width="100" height="100" relative="1" as="geometry">
            <mxPoint x="560" y="856" as="sourcePoint" />
            <mxPoint x="660" y="756" as="targetPoint" />
            <Array as="points">
              <mxPoint x="552" y="714" />
            </Array>
          </mxGeometry>
        </mxCell>
        <mxCell id="ydGu8Us_ou9ygVwaH-XO-106" value="" style="edgeStyle=entityRelationEdgeStyle;fontSize=12;html=1;endArrow=ERzeroToMany;endFill=1;rounded=0;" parent="1" source="ydGu8Us_ou9ygVwaH-XO-75" target="ydGu8Us_ou9ygVwaH-XO-88" edge="1">
          <mxGeometry width="100" height="100" relative="1" as="geometry">
            <mxPoint x="224" y="989" as="sourcePoint" />
            <mxPoint x="324" y="889" as="targetPoint" />
          </mxGeometry>
        </mxCell>
        <mxCell id="gfBNlTduynfElLAPpH-c-5" value="Tree_alleya" style="shape=table;startSize=21;container=1;collapsible=1;childLayout=tableLayout;fixedRows=1;rowLines=0;fontStyle=1;align=center;resizeLast=1;html=1;" vertex="1" parent="1">
          <mxGeometry x="560" y="497" width="231" height="114" as="geometry" />
        </mxCell>
        <mxCell id="gfBNlTduynfElLAPpH-c-6" value="" style="shape=tableRow;horizontal=0;startSize=0;swimlaneHead=0;swimlaneBody=0;fillColor=none;collapsible=0;dropTarget=0;points=[[0,0.5],[1,0.5]];portConstraint=eastwest;top=0;left=0;right=0;bottom=1;" vertex="1" parent="gfBNlTduynfElLAPpH-c-5">
          <mxGeometry y="21" width="231" height="30" as="geometry" />
        </mxCell>
        <mxCell id="gfBNlTduynfElLAPpH-c-7" value="PK" style="shape=partialRectangle;connectable=0;fillColor=none;top=0;left=0;bottom=0;right=0;fontStyle=1;overflow=hidden;whiteSpace=wrap;html=1;" vertex="1" parent="gfBNlTduynfElLAPpH-c-6">
          <mxGeometry width="30" height="30" as="geometry">
            <mxRectangle width="30" height="30" as="alternateBounds" />
          </mxGeometry>
        </mxCell>
        <mxCell id="gfBNlTduynfElLAPpH-c-8" value="id_tree_alleta INTEGER not null" style="shape=partialRectangle;connectable=0;fillColor=none;top=0;left=0;bottom=0;right=0;align=left;spacingLeft=6;fontStyle=5;overflow=hidden;whiteSpace=wrap;html=1;" vertex="1" parent="gfBNlTduynfElLAPpH-c-6">
          <mxGeometry x="30" width="201" height="30" as="geometry">
            <mxRectangle width="201" height="30" as="alternateBounds" />
          </mxGeometry>
        </mxCell>
        <mxCell id="gfBNlTduynfElLAPpH-c-9" value="" style="shape=tableRow;horizontal=0;startSize=0;swimlaneHead=0;swimlaneBody=0;fillColor=none;collapsible=0;dropTarget=0;points=[[0,0.5],[1,0.5]];portConstraint=eastwest;top=0;left=0;right=0;bottom=0;" vertex="1" parent="gfBNlTduynfElLAPpH-c-5">
          <mxGeometry y="51" width="231" height="30" as="geometry" />
        </mxCell>
        <mxCell id="gfBNlTduynfElLAPpH-c-10" value="FK" style="shape=partialRectangle;connectable=0;fillColor=none;top=0;left=0;bottom=0;right=0;editable=1;overflow=hidden;whiteSpace=wrap;html=1;" vertex="1" parent="gfBNlTduynfElLAPpH-c-9">
          <mxGeometry width="30" height="30" as="geometry">
            <mxRectangle width="30" height="30" as="alternateBounds" />
          </mxGeometry>
        </mxCell>
        <mxCell id="gfBNlTduynfElLAPpH-c-11" value="id_tree INTEGER not null" style="shape=partialRectangle;connectable=0;fillColor=none;top=0;left=0;bottom=0;right=0;align=left;spacingLeft=6;overflow=hidden;whiteSpace=wrap;html=1;" vertex="1" parent="gfBNlTduynfElLAPpH-c-9">
          <mxGeometry x="30" width="201" height="30" as="geometry">
            <mxRectangle width="201" height="30" as="alternateBounds" />
          </mxGeometry>
        </mxCell>
        <mxCell id="gfBNlTduynfElLAPpH-c-12" value="" style="shape=tableRow;horizontal=0;startSize=0;swimlaneHead=0;swimlaneBody=0;fillColor=none;collapsible=0;dropTarget=0;points=[[0,0.5],[1,0.5]];portConstraint=eastwest;top=0;left=0;right=0;bottom=0;" vertex="1" parent="gfBNlTduynfElLAPpH-c-5">
          <mxGeometry y="81" width="231" height="24" as="geometry" />
        </mxCell>
        <mxCell id="gfBNlTduynfElLAPpH-c-13" value="FK" style="shape=partialRectangle;connectable=0;fillColor=none;top=0;left=0;bottom=0;right=0;editable=1;overflow=hidden;whiteSpace=wrap;html=1;" vertex="1" parent="gfBNlTduynfElLAPpH-c-12">
          <mxGeometry width="30" height="24" as="geometry">
            <mxRectangle width="30" height="24" as="alternateBounds" />
          </mxGeometry>
        </mxCell>
        <mxCell id="gfBNlTduynfElLAPpH-c-14" value="id_alleya INTEGER not null" style="shape=partialRectangle;connectable=0;fillColor=none;top=0;left=0;bottom=0;right=0;align=left;spacingLeft=6;overflow=hidden;whiteSpace=wrap;html=1;" vertex="1" parent="gfBNlTduynfElLAPpH-c-12">
          <mxGeometry x="30" width="201" height="24" as="geometry">
            <mxRectangle width="201" height="24" as="alternateBounds" />
          </mxGeometry>
        </mxCell>
        <mxCell id="gfBNlTduynfElLAPpH-c-18" value="" style="edgeStyle=entityRelationEdgeStyle;fontSize=12;html=1;endArrow=ERoneToMany;rounded=0;entryX=-0.013;entryY=0.787;entryDx=0;entryDy=0;entryPerimeter=0;exitX=1;exitY=0.5;exitDx=0;exitDy=0;" edge="1" parent="1" source="ydGu8Us_ou9ygVwaH-XO-49" target="gfBNlTduynfElLAPpH-c-6">
          <mxGeometry width="100" height="100" relative="1" as="geometry">
            <mxPoint x="364" y="730" as="sourcePoint" />
            <mxPoint x="464" y="630" as="targetPoint" />
          </mxGeometry>
        </mxCell>
        <mxCell id="gfBNlTduynfElLAPpH-c-19" value="" style="edgeStyle=entityRelationEdgeStyle;fontSize=12;html=1;endArrow=ERoneToMany;rounded=0;exitX=1;exitY=0.5;exitDx=0;exitDy=0;" edge="1" parent="1" source="ydGu8Us_ou9ygVwaH-XO-75" target="gfBNlTduynfElLAPpH-c-9">
          <mxGeometry width="100" height="100" relative="1" as="geometry">
            <mxPoint x="511" y="737" as="sourcePoint" />
            <mxPoint x="611" y="637" as="targetPoint" />
          </mxGeometry>
        </mxCell>
        <mxCell id="gfBNlTduynfElLAPpH-c-20" value="include" style="text;strokeColor=none;align=center;fillColor=none;html=1;verticalAlign=middle;whiteSpace=wrap;rounded=0;" vertex="1" parent="1">
          <mxGeometry x="217" y="525" width="60" height="30" as="geometry" />
        </mxCell>
        <mxCell id="gfBNlTduynfElLAPpH-c-21" value="create" style="text;strokeColor=none;align=center;fillColor=none;html=1;verticalAlign=middle;whiteSpace=wrap;rounded=0;" vertex="1" parent="1">
          <mxGeometry x="511" y="518" width="60" height="30" as="geometry" />
        </mxCell>
        <mxCell id="gfBNlTduynfElLAPpH-c-22" value="create" style="text;strokeColor=none;align=center;fillColor=none;html=1;verticalAlign=middle;whiteSpace=wrap;rounded=0;" vertex="1" parent="1">
          <mxGeometry x="476" y="623" width="60" height="30" as="geometry" />
        </mxCell>
        <mxCell id="gfBNlTduynfElLAPpH-c-23" value="include" style="text;strokeColor=none;align=center;fillColor=none;html=1;verticalAlign=middle;whiteSpace=wrap;rounded=0;" vertex="1" parent="1">
          <mxGeometry x="546" y="730" width="60" height="30" as="geometry" />
        </mxCell>
        <mxCell id="gfBNlTduynfElLAPpH-c-25" value="Include" style="text;strokeColor=none;align=center;fillColor=none;html=1;verticalAlign=middle;whiteSpace=wrap;rounded=0;" vertex="1" parent="1">
          <mxGeometry x="245" y="700" width="60" height="30" as="geometry" />
        </mxCell>
        <mxCell id="ydGu8Us_ou9ygVwaH-XO-35" value="Park" style="shape=table;startSize=30;container=1;collapsible=1;childLayout=tableLayout;fixedRows=1;rowLines=0;fontStyle=1;align=center;resizeLast=1;html=1;" parent="1" vertex="1">
          <mxGeometry x="28" y="507" width="180" height="90" as="geometry" />
        </mxCell>
        <mxCell id="ydGu8Us_ou9ygVwaH-XO-36" value="" style="shape=tableRow;horizontal=0;startSize=0;swimlaneHead=0;swimlaneBody=0;fillColor=none;collapsible=0;dropTarget=0;points=[[0,0.5],[1,0.5]];portConstraint=eastwest;top=0;left=0;right=0;bottom=1;" parent="ydGu8Us_ou9ygVwaH-XO-35" vertex="1">
          <mxGeometry y="30" width="180" height="30" as="geometry" />
        </mxCell>
        <mxCell id="ydGu8Us_ou9ygVwaH-XO-37" value="PK" style="shape=partialRectangle;connectable=0;fillColor=none;top=0;left=0;bottom=0;right=0;fontStyle=1;overflow=hidden;whiteSpace=wrap;html=1;" parent="ydGu8Us_ou9ygVwaH-XO-36" vertex="1">
          <mxGeometry width="30" height="30" as="geometry">
            <mxRectangle width="30" height="30" as="alternateBounds" />
          </mxGeometry>
        </mxCell>
        <mxCell id="ydGu8Us_ou9ygVwaH-XO-38" value="id_park INTEGER not null" style="shape=partialRectangle;connectable=0;fillColor=none;top=0;left=0;bottom=0;right=0;align=left;spacingLeft=6;fontStyle=5;overflow=hidden;whiteSpace=wrap;html=1;" parent="ydGu8Us_ou9ygVwaH-XO-36" vertex="1">
          <mxGeometry x="30" width="150" height="30" as="geometry">
            <mxRectangle width="150" height="30" as="alternateBounds" />
          </mxGeometry>
        </mxCell>
        <mxCell id="ydGu8Us_ou9ygVwaH-XO-39" value="" style="shape=tableRow;horizontal=0;startSize=0;swimlaneHead=0;swimlaneBody=0;fillColor=none;collapsible=0;dropTarget=0;points=[[0,0.5],[1,0.5]];portConstraint=eastwest;top=0;left=0;right=0;bottom=0;" parent="ydGu8Us_ou9ygVwaH-XO-35" vertex="1">
          <mxGeometry y="60" width="180" height="30" as="geometry" />
        </mxCell>
        <mxCell id="ydGu8Us_ou9ygVwaH-XO-40" value="" style="shape=partialRectangle;connectable=0;fillColor=none;top=0;left=0;bottom=0;right=0;editable=1;overflow=hidden;whiteSpace=wrap;html=1;" parent="ydGu8Us_ou9ygVwaH-XO-39" vertex="1">
          <mxGeometry width="30" height="30" as="geometry">
            <mxRectangle width="30" height="30" as="alternateBounds" />
          </mxGeometry>
        </mxCell>
        <mxCell id="ydGu8Us_ou9ygVwaH-XO-41" value="name VARCHAR(30) not null" style="shape=partialRectangle;connectable=0;fillColor=none;top=0;left=0;bottom=0;right=0;align=left;spacingLeft=6;overflow=hidden;whiteSpace=wrap;html=1;" parent="ydGu8Us_ou9ygVwaH-XO-39" vertex="1">
          <mxGeometry x="30" width="150" height="30" as="geometry">
            <mxRectangle width="150" height="30" as="alternateBounds" />
          </mxGeometry>
        </mxCell>
        <mxCell id="ydGu8Us_ou9ygVwaH-XO-61" value="Kind" style="shape=table;startSize=30;container=1;collapsible=1;childLayout=tableLayout;fixedRows=1;rowLines=0;fontStyle=1;align=center;resizeLast=1;html=1;" parent="1" vertex="1">
          <mxGeometry x="616" y="724" width="180" height="90" as="geometry" />
        </mxCell>
        <mxCell id="ydGu8Us_ou9ygVwaH-XO-62" value="" style="shape=tableRow;horizontal=0;startSize=0;swimlaneHead=0;swimlaneBody=0;fillColor=none;collapsible=0;dropTarget=0;points=[[0,0.5],[1,0.5]];portConstraint=eastwest;top=0;left=0;right=0;bottom=1;" parent="ydGu8Us_ou9ygVwaH-XO-61" vertex="1">
          <mxGeometry y="30" width="180" height="30" as="geometry" />
        </mxCell>
        <mxCell id="ydGu8Us_ou9ygVwaH-XO-63" value="PK" style="shape=partialRectangle;connectable=0;fillColor=none;top=0;left=0;bottom=0;right=0;fontStyle=1;overflow=hidden;whiteSpace=wrap;html=1;" parent="ydGu8Us_ou9ygVwaH-XO-62" vertex="1">
          <mxGeometry width="30" height="30" as="geometry">
            <mxRectangle width="30" height="30" as="alternateBounds" />
          </mxGeometry>
        </mxCell>
        <mxCell id="ydGu8Us_ou9ygVwaH-XO-64" value="id_kind INTEGER" style="shape=partialRectangle;connectable=0;fillColor=none;top=0;left=0;bottom=0;right=0;align=left;spacingLeft=6;fontStyle=5;overflow=hidden;whiteSpace=wrap;html=1;" parent="ydGu8Us_ou9ygVwaH-XO-62" vertex="1">
          <mxGeometry x="30" width="150" height="30" as="geometry">
            <mxRectangle width="150" height="30" as="alternateBounds" />
          </mxGeometry>
        </mxCell>
        <mxCell id="ydGu8Us_ou9ygVwaH-XO-65" value="" style="shape=tableRow;horizontal=0;startSize=0;swimlaneHead=0;swimlaneBody=0;fillColor=none;collapsible=0;dropTarget=0;points=[[0,0.5],[1,0.5]];portConstraint=eastwest;top=0;left=0;right=0;bottom=0;" parent="ydGu8Us_ou9ygVwaH-XO-61" vertex="1">
          <mxGeometry y="60" width="180" height="30" as="geometry" />
        </mxCell>
        <mxCell id="ydGu8Us_ou9ygVwaH-XO-66" value="" style="shape=partialRectangle;connectable=0;fillColor=none;top=0;left=0;bottom=0;right=0;editable=1;overflow=hidden;whiteSpace=wrap;html=1;" parent="ydGu8Us_ou9ygVwaH-XO-65" vertex="1">
          <mxGeometry width="30" height="30" as="geometry">
            <mxRectangle width="30" height="30" as="alternateBounds" />
          </mxGeometry>
        </mxCell>
        <mxCell id="ydGu8Us_ou9ygVwaH-XO-67" value="name VARCHAR(30) not null" style="shape=partialRectangle;connectable=0;fillColor=none;top=0;left=0;bottom=0;right=0;align=left;spacingLeft=6;overflow=hidden;whiteSpace=wrap;html=1;" parent="ydGu8Us_ou9ygVwaH-XO-65" vertex="1">
          <mxGeometry x="30" width="150" height="30" as="geometry">
            <mxRectangle width="150" height="30" as="alternateBounds" />
          </mxGeometry>
        </mxCell>
      </root>
    </mxGraphModel>
  </diagram>
</mxfile>
